<?xml version="1.0" standalone="no"?>
<!DOCTYPE svg PUBLIC "-//W3C//DTD SVG 20010904//EN"
 "http://www.w3.org/TR/2001/REC-SVG-20010904/DTD/svg10.dtd">
<svg version="1.0" xmlns="http://www.w3.org/2000/svg"
 width="115.000000pt" height="115.000000pt" viewBox="0 0 115.000000 115.000000"
 preserveAspectRatio="xMidYMid meet">
<metadata>
Created by potrace 1.11, written by Peter Selinger 2001-2013
</metadata>
<g transform="translate(0.000000,115.000000) scale(0.100000,-0.100000)"
fill="#000000" stroke="none">
<path d="M10 975 c0 -13 70 -15 568 -15 499 0 569 2 569 15 0 13 -70 15 -569
15 -498 0 -568 -2 -568 -15z"/>
<path d="M102 918 c-10 -13 -92 -202 -92 -212 0 -4 11 -6 24 -6 16 0 27 8 35
28 9 22 18 27 39 26 15 -1 35 -3 45 -3 10 -1 22 -12 27 -26 9 -24 43 -35 53
-17 3 4 -15 51 -38 106 -47 110 -68 134 -93 104z m25 -119 c-27 -7 -32 3 -16
32 l12 22 13 -24 c11 -22 10 -25 -9 -30z"/>
<path d="M282 921 c-8 -5 -11 -44 -11 -114 l2 -107 79 1 c75 1 79 2 76 22 -2
18 -10 22 -44 23 -22 0 -45 4 -51 7 -6 4 -11 35 -11 70 0 34 0 69 -1 78 -1 20
-23 30 -39 20z"/>
<path d="M985 877 c-13 -29 -35 -80 -48 -113 l-25 -61 25 0 c16 0 28 8 35 22
7 15 21 24 42 27 48 5 64 -1 70 -28 5 -17 13 -24 31 -24 14 0 25 4 25 8 0 8
-79 203 -85 210 -1 1 -12 5 -24 7 -18 3 -26 -5 -46 -48z m54 -78 c-20 -12 -31
4 -23 36 l7 28 14 -28 c13 -23 13 -29 2 -36z"/>
<path d="M466 818 c2 -127 0 -118 24 -118 21 0 22 1 24 42 2 38 24 59 37 36
24 -43 62 -78 85 -78 31 0 30 9 -7 56 -56 70 -56 71 -8 120 l43 44 -32 0 c-26
0 -42 -10 -75 -46 l-43 -46 1 46 c2 43 0 46 -24 46 l-26 0 1 -102z"/>
<path d="M692 813 c3 -96 5 -108 22 -111 24 -5 35 13 31 55 -2 33 -2 33 41 33
l44 0 0 -45 c0 -41 2 -45 25 -45 l25 0 0 110 0 110 -25 0 c-22 0 -25 -4 -25
-39 0 -37 -2 -39 -35 -43 -42 -5 -52 5 -50 50 2 29 0 32 -27 32 l-29 0 3 -107z"/>
<path d="M9 628 c-5 -194 -6 -188 19 -189 93 -5 113 0 148 35 27 27 34 42 34
73 0 72 -46 109 -142 112 l-58 2 -1 -33z m132 -39 c37 -37 0 -109 -56 -109
-19 0 -24 6 -27 36 -2 20 -2 49 0 65 4 24 9 29 33 29 16 0 38 -9 50 -21z"/>
<path d="M301 638 c-5 -13 -25 -61 -45 -106 -20 -46 -36 -86 -36 -88 0 -2 11
-4 25 -4 17 0 29 8 36 24 10 20 19 24 54 24 35 0 44 -4 54 -24 7 -16 19 -24
36 -24 29 0 32 -10 -52 183 -20 44 -58 52 -72 15z m37 -106 c-27 -5 -30 1 -17
34 l11 29 12 -30 c11 -27 11 -30 -6 -33z"/>
<path d="M482 551 c0 -99 2 -110 19 -114 26 -7 32 6 30 77 l-1 61 28 -42 c15
-24 29 -43 32 -43 4 0 17 18 30 39 l25 39 5 -66 c5 -59 7 -66 28 -67 14 -1 22
4 23 14 1 26 1 164 0 189 -1 17 -7 22 -26 22 -19 0 -32 -11 -54 -45 l-29 -46
-28 46 c-23 35 -35 45 -55 45 l-27 0 0 -109z"/>
<path d="M826 652 c-20 -33 -85 -199 -82 -208 7 -19 42 -5 54 21 9 20 18 24
52 23 34 0 44 -5 52 -24 8 -17 19 -24 39 -24 l29 0 -26 58 c-14 31 -35 81 -46
110 -17 42 -25 52 -44 52 -12 0 -25 -4 -28 -8z m43 -109 c1 -7 -8 -13 -19 -13
-23 0 -25 12 -8 43 11 21 11 21 19 2 4 -11 8 -26 8 -32z"/>
<path d="M957 652 c-10 -21 0 -37 25 -37 15 -1 30 -4 34 -8 4 -3 6 -43 6 -87
l-1 -81 26 3 c26 3 26 4 26 86 -1 87 1 90 55 83 7 -1 12 9 12 23 0 24 -1 25
-90 25 -49 0 -91 -3 -93 -7z"/>
<path d="M30 392 c-27 -3 -26 2 -21 -219 l1 -23 568 0 567 0 0 114 c0 63 -3
118 -7 121 -7 7 -1054 13 -1108 7z"/>
</g>
</svg>
