<?xml version="1.0" standalone="no"?>
<!DOCTYPE svg PUBLIC "-//W3C//DTD SVG 20010904//EN"
 "http://www.w3.org/TR/2001/REC-SVG-20010904/DTD/svg10.dtd">
<svg version="1.0" xmlns="http://www.w3.org/2000/svg"
 width="700.000000pt" height="700.000000pt" viewBox="0 0 700.000000 700.000000"
 preserveAspectRatio="xMidYMid meet">
<metadata>
Created by potrace 1.11, written by Peter Selinger 2001-2013
</metadata>
<g transform="translate(0.000000,700.000000) scale(0.100000,-0.100000)"
fill="#000000" stroke="none">
<path d="M355 6550 c-1 -3 -3 -48 -2 -100 l0 -96 3186 1 3186 0 0 100 0 100
-3183 0 c-1751 0 -3185 -2 -3187 -5z"/>
<path d="M354 5276 l1 -801 195 0 195 0 2 225 c0 124 2 240 2 258 l1 32 153
-1 152 -1 190 -254 c104 -140 192 -255 195 -255 19 -5 442 -3 445 2 2 3 -31
51 -73 107 -42 55 -138 181 -213 279 l-135 178 85 42 c197 96 292 245 293 456
0 100 -14 164 -53 240 -51 102 -136 177 -258 228 -139 58 -171 61 -697 63
l-481 2 1 -800z m902 471 c81 -21 156 -78 175 -134 32 -99 4 -202 -71 -256
-67 -48 -130 -57 -385 -57 l-230 0 2 222 c1 123 2 226 2 230 1 7 476 3 507 -5z"/>
<path d="M2070 5279 c0 -629 3 -798 13 -801 6 -2 311 -4 677 -4 l665 1 3 158
3 157 -486 0 -485 0 2 168 3 167 418 0 417 0 0 156 0 156 -392 1 c-216 0 -405
1 -420 1 l-28 1 0 160 c0 121 3 160 13 161 6 0 221 1 477 2 l465 2 0 153 c0
83 -2 153 -5 153 -3 1 -305 2 -672 3 l-668 1 0 -796z"/>
<path d="M3655 6070 c-4 -8 -4 -1563 1 -1580 3 -13 33 -15 196 -15 l193 0 2
295 c0 162 2 302 2 310 1 13 55 15 424 15 l422 0 3 158 3 157 -48 1 c-27 0
-218 0 -425 1 -279 0 -378 3 -379 11 -1 14 -1 319 0 328 1 3 215 6 476 6 261
0 478 3 481 6 8 8 11 306 4 308 -16 4 -1352 3 -1355 -1z"/>
<path d="M5174 6071 c-8 -9 -2 -986 7 -1050 22 -155 77 -271 174 -367 75 -74
142 -113 260 -153 108 -36 196 -49 330 -49 269 0 453 64 595 208 84 84 127
161 162 287 21 74 22 103 26 597 2 352 0 521 -7 525 -6 4 -95 6 -198 6 l-188
0 -1 -495 c-1 -336 -5 -511 -13 -543 -39 -166 -167 -256 -363 -259 -130 -1
-213 28 -288 101 -48 48 -60 67 -80 131 -24 75 -24 76 -25 567 0 271 -2 494
-5 494 -16 4 -382 4 -386 0z"/>
<path d="M1157 4165 c-1 -2 -31 -5 -67 -9 -333 -31 -625 -282 -710 -611 -23
-87 -30 -245 -16 -350 25 -194 151 -412 297 -512 13 -10 30 -23 37 -30 26 -25
185 -95 265 -116 66 -17 110 -21 227 -21 134 1 233 8 252 20 5 3 21 8 36 10
76 14 292 125 371 192 l34 28 0 336 c-1 185 -4 341 -7 346 -4 7 -133 10 -349
10 l-342 0 1 -141 c1 -78 2 -147 3 -153 1 -7 59 -10 176 -10 l175 1 0 -117 0
-118 -52 -26 c-165 -84 -382 -85 -524 -3 -156 91 -246 267 -238 468 9 227 163
425 369 471 57 13 200 5 265 -15 62 -19 146 -64 204 -109 l39 -30 19 25 c11
13 27 33 36 44 178 212 166 194 146 216 -23 26 -145 102 -206 129 -56 24 -181
56 -258 65 -58 7 -178 13 -183 10z"/>
<path d="M2070 3340 c0 -752 1 -798 18 -801 9 -2 314 -4 677 -4 l660 1 3 157
3 157 -486 0 -485 0 0 168 0 167 418 0 417 0 3 158 3 157 -421 0 -420 0 0 163
0 162 477 0 478 0 0 155 0 155 -672 1 -673 1 0 -797z"/>
<path d="M3659 4136 c-1 -1 -2 -360 -3 -798 -1 -708 0 -798 14 -799 8 0 312
-1 675 -2 l660 -1 3 157 3 157 -485 0 -484 0 1 158 c0 86 2 162 4 167 2 7 138
11 414 10 226 0 414 2 418 5 4 3 7 74 6 158 l0 152 -421 0 -421 0 0 159 c-1
112 2 161 10 163 7 2 222 3 480 3 l467 0 -2 155 -3 155 -667 1 c-368 0 -669 0
-669 0z"/>
<path d="M356 2191 c-2 -3 -3 -396 -3 -873 0 -618 3 -868 11 -871 6 -2 1440
-3 3186 -3 l3175 1 3 876 2 876 -3185 0 c-1752 0 -3187 -2 -3189 -6z"/>
</g>
</svg>
